# xmcd
#
# Track frame offsets:
#  150
#  17269
#  37715
#  57872
#  76112
#  91920
#  116482
#  132855
#  149699
#  160849
#  175554
#  192877
#  212872
#  226030
#  247926
#  265905
#  282974
#  300494
#
# Disc length: 4329 seconds
#
# Revision: 0
# Processed by: cddbd v1.5.1PL0 Copyright (c) Steve Scherf et al.
# Submitted via: Collectorz.com Music Collector 6.9
#
DISCID=db10e712
DTITLE=Various Artist - Honky Tonk 4
DYEAR=1900
DGENRE=
TTITLE0=Walt Wildins Band - Mechanicsville
TTITLE1=Walt Wildins Band - Moan and Whine
TTITLE2=Walt Wildins Band - Ruby's 2 Sad Daughters
TTITLE3=Walt Wildins Band - Sandy Loam
TTITLE4=Walt Wildins Band - My 1st Night in Denver
TTITLE5=Walt Wildins Band - Big Hopes
TTITLE6=Bill Staines - On the Road Again
TTITLE7=Bill Staines - The Games People Play
TTITLE8=Bill Staines - Virginia's Reel
TTITLE9=Bill Staines - Old City Jail
TTITLE10=Bill Staines - When I Hear the Music Play
TTITLE11=Roy Rogers and Shana Morrison - Molly O And Dog Boy
TTITLE12=Roy Rogers and Shana Morrison - Joey
TTITLE13=Roy Rogers and Shana Morrison - Nothing Left To Lose
TTITLE14=Roy Rogers and Shana Morrison - Hello Stranger
TTITLE15=Roy Rogers and Shana Morrison - Therapy
TTITLE16=Roy Rogers and Shana Morrison - Amy Sky
TTITLE17=Roy Rogers and Shana Morrison - Everybody's Angel
EXTD=
EXTT0=
EXTT1=
EXTT2=
EXTT3=
EXTT4=
EXTT5=
EXTT6=
EXTT7=
EXTT8=
EXTT9=
EXTT10=
EXTT11=
EXTT12=
EXTT13=
EXTT14=
EXTT15=
EXTT16=
EXTT17=
PLAYORDER=
